<svg width="341" height="314" viewBox="0 0 341 314" fill="none" xmlns="http://www.w3.org/2000/svg">
<g filter="url(#filter0_i_29_89)">
<path d="M20.3027 154.016L124.102 42.5024C128.92 37.3263 135.186 33.7226 142.083 32.1615C148.98 30.6003 156.187 31.1542 162.764 33.7509L304.468 89.6935L159.649 149.522L20.3027 154.016Z" fill="#8E0D0D"/>
</g>
<g filter="url(#filter1_i_29_89)">
<path d="M304.573 90.1557L336.799 232.524C337.39 235.12 337.382 237.815 336.776 240.407C336.171 242.999 334.983 245.418 333.303 247.483C333.247 247.555 333.186 247.629 333.129 247.696C332.901 247.964 332.666 248.228 332.424 248.487C330.031 251.026 326.933 252.793 323.529 253.56L73.669 310.117C69.8242 310.994 65.796 310.546 62.2377 308.846L62.2306 308.842C59.8255 307.702 57.7115 306.03 56.0487 303.951C54.3859 301.873 53.218 299.444 52.6335 296.847L20.4074 154.479L304.573 90.1557Z" fill="white"/>
</g>
<g filter="url(#filter2_i_29_89)">
<path d="M304.573 90.1556L336.799 232.524C337.4 235.165 337.381 237.909 336.744 240.541C336.108 243.173 334.87 245.622 333.129 247.696L218.017 213.214L304.573 90.1556Z" fill="#8E0D0D"/>
</g>
<g filter="url(#filter3_i_29_89)">
<path d="M151.521 228.266L125.116 298.472L73.669 310.117C71.4164 310.628 69.0855 310.689 66.8092 310.298C64.533 309.907 62.356 309.072 60.4026 307.839C58.4493 306.607 56.7578 305.002 55.4247 303.116C54.0917 301.23 53.1432 299.1 52.6335 296.847L20.4073 154.479L151.521 228.266Z" fill="#8E0D0D"/>
</g>
<g filter="url(#filter4_i_29_89)">
<path d="M333.303 247.482L332.424 248.487C330.031 251.026 326.933 252.792 323.529 253.56L73.669 310.117C71.6424 310.579 69.5497 310.676 67.489 310.404L62.2377 308.846L62.2307 308.842L165.886 215.307C170.363 211.267 175.803 208.446 181.685 207.115C187.566 205.784 193.691 205.987 199.471 207.705L333.303 247.482Z" fill="#8E0D0D"/>
</g>
<path d="M85.3194 171.821L83.7745 164.994L84.3695 164.859L88.6956 169.478L88.3835 169.549L90.2703 163.524L90.8653 163.389L92.4102 170.216L91.7177 170.373L90.4178 164.628L90.5836 164.591L88.8391 170.112L88.4977 170.189L84.5267 165.961L84.712 165.919L86.0119 171.664L85.3194 171.821ZM99.5389 168.603L98.3802 163.483L99.0727 163.326L100.231 168.447L99.5389 168.603ZM95.9502 165.929C96.5954 165.79 97.1187 165.822 97.5201 166.025C97.9215 166.228 98.1818 166.593 98.301 167.12C98.4245 167.666 98.3374 168.127 98.0395 168.502C97.7415 168.877 97.2537 169.138 96.576 169.284L94.5451 169.733L93.3864 164.613L94.0789 164.456L94.4828 166.241L95.9502 165.929ZM96.4081 168.768C96.8907 168.666 97.2303 168.49 97.4267 168.241C97.6282 167.983 97.6855 167.663 97.5987 167.279C97.5119 166.895 97.3283 166.643 97.048 166.522C96.7662 166.394 96.3808 166.382 95.8916 166.486L94.5998 166.758L95.1162 169.04L96.4081 168.768ZM107.071 166.961C106.655 167.055 106.269 167.07 105.913 167.007C105.563 166.943 105.243 166.797 104.952 166.569C104.661 166.34 104.411 166.035 104.201 165.652C103.99 165.262 103.823 164.794 103.699 164.248C103.589 163.76 103.538 163.324 103.546 162.939C103.554 162.548 103.608 162.201 103.71 161.897C103.813 161.594 103.951 161.327 104.124 161.096C104.302 160.858 104.506 160.655 104.734 160.487C104.968 160.311 105.215 160.163 105.475 160.042L107.655 158.985L107.918 159.602L105.863 160.58C105.734 160.643 105.578 160.726 105.396 160.829C105.221 160.93 105.046 161.062 104.871 161.225C104.702 161.386 104.557 161.59 104.435 161.836C104.313 162.082 104.237 162.383 104.208 162.738C104.184 163.085 104.228 163.503 104.338 163.991C104.361 164.095 104.384 164.178 104.405 164.242C104.425 164.299 104.446 164.362 104.469 164.433C104.496 164.495 104.528 164.59 104.564 164.719L104.204 164.533C104.186 164.121 104.254 163.743 104.409 163.4C104.563 163.051 104.787 162.758 105.082 162.52C105.382 162.275 105.736 162.105 106.146 162.013C106.621 161.905 107.067 161.914 107.485 162.038C107.901 162.156 108.254 162.373 108.545 162.69C108.842 163.006 109.044 163.404 109.153 163.885C109.261 164.36 109.247 164.811 109.111 165.238C108.982 165.664 108.743 166.029 108.395 166.333C108.045 166.631 107.604 166.84 107.071 166.961ZM107.019 166.367C107.383 166.285 107.686 166.131 107.929 165.905C108.17 165.673 108.337 165.396 108.428 165.075C108.526 164.752 108.534 164.411 108.453 164.054C108.374 163.703 108.222 163.409 107.998 163.173C107.78 162.935 107.513 162.77 107.198 162.677C106.882 162.577 106.539 162.57 106.168 162.654C105.804 162.736 105.5 162.887 105.255 163.106C105.01 163.319 104.836 163.58 104.736 163.89C104.641 164.199 104.635 164.532 104.716 164.889C104.796 165.247 104.947 165.551 105.168 165.802C105.395 166.051 105.668 166.229 105.986 166.335C106.31 166.439 106.654 166.45 107.019 166.367ZM111.569 167.922C111.328 167.976 111.089 167.989 110.85 167.961C110.618 167.932 110.406 167.857 110.215 167.736L110.42 167.146C110.578 167.24 110.739 167.303 110.903 167.334C111.075 167.37 111.256 167.367 111.444 167.324C111.672 167.273 111.852 167.164 111.985 166.997C112.126 166.835 112.236 166.578 112.313 166.226L112.475 165.399L112.529 165.275L113.56 160.048L114.243 159.893L112.976 166.209C112.908 166.573 112.808 166.872 112.677 167.107C112.552 167.34 112.397 167.519 112.213 167.642C112.031 167.773 111.816 167.866 111.569 167.922ZM112.528 165.818L108.976 161.085L109.698 160.922L112.849 165.151L112.528 165.818ZM119.698 163.693L118.751 159.509L116.283 160.067L116.483 161.222C116.548 161.569 116.602 161.913 116.644 162.252C116.693 162.589 116.714 162.906 116.706 163.202C116.702 163.489 116.659 163.735 116.575 163.939C116.49 164.136 116.353 164.269 116.163 164.339L115.442 164.369C115.645 164.33 115.795 164.221 115.891 164.042C115.986 163.857 116.039 163.622 116.05 163.34C116.061 163.057 116.045 162.743 116.001 162.397C115.955 162.045 115.902 161.688 115.84 161.326L115.522 159.604L119.307 158.748L120.39 163.537L119.698 163.693ZM115.645 166.261L115.228 164.418L121.128 163.083L121.545 164.926L120.892 165.074L120.612 163.835L116.018 164.875L116.298 166.113L115.645 166.261ZM124.82 162.934C124.287 163.055 123.794 163.05 123.341 162.92C122.886 162.784 122.501 162.546 122.185 162.208C121.868 161.863 121.652 161.436 121.537 160.929C121.422 160.422 121.428 159.949 121.554 159.51C121.687 159.07 121.917 158.697 122.244 158.391C122.576 158.076 122.98 157.865 123.454 157.758C123.935 157.649 124.386 157.663 124.807 157.8C125.233 157.93 125.598 158.168 125.902 158.516C126.205 158.858 126.414 159.286 126.531 159.799C126.538 159.832 126.543 159.868 126.545 159.909C126.553 159.941 126.561 159.977 126.569 160.016L122.112 161.025L121.995 160.508L126.082 159.583L125.855 159.85C125.771 159.479 125.616 159.169 125.388 158.92C125.166 158.662 124.9 158.483 124.59 158.383C124.28 158.282 123.947 158.272 123.589 158.353C123.238 158.432 122.941 158.585 122.698 158.811C122.455 159.037 122.289 159.313 122.199 159.641C122.109 159.969 122.107 160.322 122.192 160.699L122.217 160.806C122.305 161.196 122.467 161.522 122.704 161.783C122.946 162.036 123.239 162.212 123.582 162.312C123.931 162.404 124.304 162.405 124.701 162.315C125.013 162.245 125.29 162.124 125.531 161.953C125.779 161.781 125.975 161.559 126.119 161.287L126.61 161.647C126.445 161.972 126.206 162.245 125.893 162.466C125.588 162.685 125.23 162.841 124.82 162.934ZM128.644 162.018L127.485 156.897L128.188 156.738L131.398 160.143L131.106 160.21L132.577 155.745L133.22 155.599L134.379 160.72L133.745 160.863L132.765 156.533L132.905 156.563L131.526 160.709L131.214 160.78L128.156 157.596L128.296 157.534L129.278 161.874L128.644 162.018ZM141.02 159.268C140.526 159.38 140.055 159.37 139.609 159.239C139.167 159.1 138.788 158.861 138.473 158.522C138.155 158.177 137.939 157.751 137.824 157.244C137.708 156.73 137.72 156.252 137.859 155.811C137.998 155.369 138.238 154.994 138.578 154.684C138.918 154.375 139.339 154.164 139.839 154.05C140.346 153.936 140.82 153.945 141.26 154.077C141.707 154.209 142.085 154.444 142.394 154.785C142.71 155.123 142.926 155.549 143.042 156.063C143.157 156.57 143.146 157.048 143.008 157.496C142.875 157.936 142.636 158.315 142.291 158.632C141.944 158.943 141.521 159.155 141.02 159.268ZM140.881 158.654C141.252 158.57 141.562 158.415 141.811 158.187C142.059 157.953 142.23 157.669 142.325 157.333C142.425 156.989 142.43 156.619 142.34 156.222C142.249 155.819 142.085 155.487 141.848 155.226C141.618 154.964 141.341 154.784 141.019 154.686C140.694 154.581 140.35 154.57 139.986 154.653C139.622 154.735 139.316 154.893 139.068 155.127C138.819 155.354 138.643 155.637 138.542 155.974C138.44 156.311 138.435 156.682 138.527 157.085C138.616 157.482 138.78 157.814 139.019 158.081C139.255 158.342 139.536 158.524 139.86 158.629C140.183 158.726 140.523 158.735 140.881 158.654ZM147.851 155.395C147.581 155.593 147.303 155.766 147.015 155.913C146.732 156.052 146.441 156.155 146.142 156.223C145.537 156.36 145.028 156.331 144.615 156.138C144.201 155.938 143.928 155.548 143.797 154.97L143.418 153.292L144.1 153.137L144.471 154.776C144.559 155.166 144.752 155.43 145.05 155.568C145.348 155.705 145.711 155.726 146.14 155.629C146.4 155.57 146.666 155.475 146.938 155.346C147.208 155.209 147.474 155.043 147.737 154.847L147.851 155.395ZM148.282 157.574L147.124 152.453L147.816 152.297L148.975 157.417L148.282 157.574ZM153.147 156.524C152.614 156.645 152.121 156.64 151.668 156.511C151.213 156.374 150.828 156.137 150.512 155.798C150.195 155.453 149.979 155.027 149.864 154.52C149.749 154.012 149.755 153.539 149.881 153.101C150.014 152.661 150.244 152.287 150.571 151.981C150.903 151.666 151.306 151.456 151.781 151.348C152.262 151.239 152.713 151.253 153.134 151.391C153.56 151.52 153.925 151.759 154.229 152.107C154.532 152.448 154.741 152.876 154.857 153.39C154.865 153.422 154.87 153.459 154.872 153.499C154.879 153.532 154.887 153.567 154.896 153.606L150.439 154.615L150.322 154.098L154.409 153.173L154.182 153.44C154.098 153.069 153.943 152.759 153.715 152.51C153.493 152.253 153.227 152.074 152.917 151.973C152.607 151.872 152.273 151.862 151.916 151.943C151.565 152.023 151.268 152.175 151.025 152.401C150.782 152.627 150.616 152.904 150.526 153.232C150.436 153.56 150.434 153.912 150.519 154.289L150.543 154.397C150.632 154.787 150.794 155.112 151.031 155.373C151.273 155.626 151.565 155.802 151.909 155.902C152.258 155.994 152.631 155.995 153.028 155.905C153.34 155.835 153.617 155.714 153.858 155.543C154.106 155.371 154.302 155.149 154.446 154.877L154.937 155.238C154.772 155.562 154.533 155.835 154.22 156.056C153.914 156.276 153.557 156.432 153.147 156.524ZM156.971 155.608L155.812 150.487L156.505 150.331L157.017 152.593L160.245 151.863L159.733 149.6L160.426 149.443L161.584 154.564L160.892 154.721L160.38 152.458L157.151 153.188L157.663 155.451L156.971 155.608ZM165.006 150.304C165.652 150.164 166.172 150.197 166.566 150.402C166.968 150.605 167.228 150.97 167.347 151.496C167.471 152.043 167.384 152.503 167.086 152.878C166.794 153.252 166.307 153.512 165.622 153.66L163.552 154.119L162.394 148.998L163.086 148.841L163.49 150.626L165.006 150.304ZM165.464 153.143C165.94 153.042 166.277 152.866 166.473 152.617C166.675 152.36 166.732 152.039 166.645 151.655C166.558 151.272 166.375 151.019 166.094 150.898C165.813 150.771 165.43 150.758 164.948 150.86L163.607 151.143L164.124 153.425L165.464 153.143ZM174.255 151.748C173.813 151.848 173.39 151.838 172.987 151.717C172.582 151.59 172.229 151.359 171.928 151.024C171.632 150.681 171.42 150.23 171.294 149.67C171.167 149.111 171.164 148.616 171.286 148.186C171.406 147.748 171.621 147.389 171.933 147.106C172.245 146.824 172.626 146.632 173.074 146.53C173.562 146.42 174.023 146.432 174.456 146.566C174.895 146.692 175.27 146.929 175.581 147.275C175.89 147.615 176.103 148.042 176.219 148.556C176.337 149.076 176.329 149.556 176.196 149.996C176.064 150.437 175.827 150.811 175.487 151.121C175.153 151.429 174.743 151.638 174.255 151.748ZM172.029 154.19L170.442 147.177L171.106 147.027L171.454 148.568L171.618 149.607L171.949 150.619L172.722 154.033L172.029 154.19ZM174.067 151.145C174.431 151.062 174.738 150.907 174.988 150.68C175.235 150.446 175.41 150.161 175.511 149.823C175.611 149.48 175.616 149.109 175.527 148.713C175.437 148.316 175.274 147.987 175.037 147.726C174.8 147.466 174.52 147.283 174.195 147.179C173.871 147.074 173.527 147.063 173.163 147.146C172.798 147.228 172.489 147.387 172.235 147.622C171.987 147.856 171.812 148.142 171.711 148.479C171.616 148.815 171.614 149.181 171.703 149.578C171.793 149.974 171.954 150.307 172.185 150.576C172.422 150.837 172.703 151.019 173.027 151.124C173.356 151.22 173.703 151.227 174.067 151.145ZM181.438 150.071L181.182 148.94L181.111 148.761L180.683 146.869C180.584 146.433 180.385 146.127 180.085 145.948C179.792 145.769 179.404 145.733 178.923 145.842C178.591 145.917 178.289 146.044 178.014 146.222C177.74 146.4 177.52 146.604 177.353 146.833L176.924 146.387C177.134 146.107 177.408 145.867 177.746 145.668C178.082 145.462 178.451 145.313 178.854 145.222C179.518 145.072 180.066 145.122 180.498 145.373C180.936 145.616 181.231 146.072 181.382 146.742L182.102 149.921L181.438 150.071ZM179.684 150.52C179.3 150.606 178.952 150.62 178.638 150.562C178.329 150.495 178.074 150.368 177.875 150.181C177.674 149.987 177.54 149.744 177.474 149.451C177.413 149.185 177.421 148.93 177.496 148.687C177.576 148.437 177.744 148.214 178.001 148.019C178.263 147.817 178.637 147.66 179.125 147.55L180.89 147.15L181.007 147.667L179.261 148.062C178.767 148.174 178.442 148.34 178.287 148.56C178.138 148.778 178.093 149.017 178.152 149.277C178.218 149.57 178.385 149.778 178.652 149.902C178.92 150.026 179.258 150.042 179.668 149.949C180.058 149.861 180.373 149.697 180.613 149.459C180.858 149.212 181.007 148.905 181.06 148.537L181.325 148.98C181.271 149.347 181.105 149.668 180.825 149.944C180.552 150.217 180.172 150.409 179.684 150.52ZM187.381 148.378L186.435 144.194L183.967 144.752L184.167 145.907C184.232 146.254 184.285 146.597 184.328 146.936C184.377 147.274 184.397 147.591 184.389 147.886C184.386 148.174 184.342 148.42 184.258 148.623C184.173 148.82 184.036 148.954 183.847 149.024L183.126 149.054C183.329 149.015 183.478 148.906 183.574 148.727C183.669 148.541 183.722 148.307 183.733 148.024C183.745 147.742 183.728 147.428 183.684 147.082C183.639 146.73 183.585 146.373 183.524 146.011L183.206 144.289L186.99 143.432L188.074 148.221L187.381 148.378ZM183.328 150.946L182.911 149.103L188.812 147.767L189.229 149.611L188.575 149.759L188.295 148.52L183.701 149.559L183.982 150.798L183.328 150.946ZM195.292 146.937L194.133 141.816L194.826 141.659L195.984 146.78L195.292 146.937ZM191.703 144.263C192.349 144.124 192.872 144.156 193.273 144.359C193.675 144.562 193.935 144.927 194.054 145.453C194.178 145.999 194.09 146.46 193.793 146.835C193.495 147.21 193.007 147.471 192.329 147.617L190.298 148.067L189.14 142.946L189.832 142.789L190.236 144.574L191.703 144.263ZM192.161 147.102C192.644 146.999 192.983 146.823 193.18 146.574C193.381 146.316 193.439 145.996 193.352 145.612C193.265 145.229 193.081 144.976 192.801 144.855C192.519 144.727 192.134 144.716 191.645 144.819L190.353 145.091L190.869 147.374L192.161 147.102ZM203.163 145.207C202.721 145.307 202.298 145.297 201.895 145.176C201.49 145.049 201.137 144.818 200.836 144.483C200.539 144.14 200.328 143.688 200.201 143.129C200.075 142.57 200.072 142.075 200.194 141.644C200.313 141.207 200.529 140.847 200.841 140.565C201.153 140.282 201.534 140.09 201.982 139.989C202.47 139.878 202.931 139.89 203.364 140.025C203.803 140.151 204.178 140.387 204.489 140.734C204.798 141.074 205.011 141.501 205.127 142.015C205.245 142.535 205.237 143.015 205.104 143.455C204.972 143.895 204.735 144.27 204.395 144.58C204.061 144.887 203.651 145.097 203.163 145.207ZM200.937 147.648L199.35 140.636L200.013 140.486L200.362 142.027L200.526 143.066L200.857 144.078L201.629 147.492L200.937 147.648ZM202.975 144.603C203.339 144.521 203.646 144.366 203.895 144.139C204.143 143.905 204.318 143.62 204.419 143.282C204.519 142.938 204.524 142.568 204.434 142.171C204.345 141.775 204.181 141.446 203.945 141.185C203.708 140.924 203.427 140.742 203.103 140.637C202.779 140.533 202.434 140.522 202.07 140.605C201.706 140.687 201.397 140.846 201.143 141.081C200.895 141.315 200.72 141.6 200.619 141.938C200.524 142.274 200.521 142.64 200.611 143.037C200.701 143.433 200.862 143.766 201.093 144.035C201.33 144.296 201.611 144.478 201.935 144.583C202.264 144.679 202.611 144.686 202.975 144.603ZM210.346 143.53L210.09 142.399L210.019 142.22L209.591 140.328C209.492 139.892 209.293 139.585 208.993 139.407C208.699 139.228 208.312 139.192 207.831 139.301C207.499 139.376 207.196 139.503 206.922 139.681C206.648 139.859 206.428 140.063 206.261 140.292L205.832 139.846C206.042 139.566 206.316 139.326 206.653 139.127C206.99 138.921 207.359 138.772 207.762 138.681C208.426 138.531 208.974 138.581 209.406 138.832C209.844 139.075 210.138 139.531 210.29 140.201L211.01 143.38L210.346 143.53ZM208.592 143.978C208.208 144.065 207.859 144.079 207.545 144.02C207.236 143.954 206.982 143.827 206.783 143.639C206.581 143.446 206.448 143.203 206.382 142.91C206.321 142.643 206.329 142.389 206.404 142.146C206.484 141.896 206.652 141.673 206.909 141.478C207.17 141.276 207.545 141.119 208.033 141.009L209.798 140.609L209.915 141.126L208.169 141.521C207.675 141.633 207.35 141.799 207.195 142.018C207.046 142.237 207.001 142.476 207.06 142.736C207.126 143.029 207.293 143.237 207.56 143.361C207.828 143.485 208.166 143.501 208.576 143.408C208.966 143.32 209.281 143.156 209.521 142.917C209.766 142.671 209.915 142.363 209.968 141.996L210.233 142.438C210.179 142.806 210.012 143.127 209.733 143.402C209.46 143.676 209.08 143.868 208.592 143.978ZM214.137 142.734C213.766 142.818 213.387 142.849 212.999 142.827C212.612 142.806 212.254 142.719 211.926 142.568L212.033 142C212.321 142.126 212.639 142.201 212.986 142.225C213.332 142.243 213.664 142.216 213.983 142.144C214.3 142.065 214.566 141.957 214.781 141.819C214.996 141.682 215.151 141.524 215.247 141.345C215.344 141.166 215.37 140.982 215.328 140.793C215.266 140.52 215.095 140.337 214.814 140.243C214.531 140.143 214.175 140.142 213.746 140.239L212.869 140.437L212.754 139.93L213.583 139.743C213.836 139.685 214.053 139.602 214.234 139.493C214.414 139.384 214.542 139.255 214.618 139.108C214.701 138.96 214.723 138.801 214.685 138.632C214.644 138.45 214.543 138.309 214.384 138.208C214.231 138.106 214.037 138.047 213.801 138.032C213.565 138.017 213.307 138.041 213.028 138.105C212.776 138.169 212.521 138.267 212.264 138.4C212.006 138.527 211.759 138.689 211.523 138.886L211.207 138.394C211.47 138.17 211.74 137.986 212.015 137.842C212.295 137.69 212.584 137.58 212.883 137.512C213.29 137.406 213.668 137.372 214.019 137.409C214.375 137.444 214.675 137.544 214.917 137.708C215.157 137.865 215.31 138.087 215.375 138.373C215.432 138.627 215.404 138.866 215.291 139.089C215.177 139.313 215.002 139.507 214.766 139.67C214.529 139.833 214.245 139.951 213.914 140.027L213.901 139.835C214.486 139.702 214.967 139.713 215.344 139.867C215.727 140.02 215.962 140.291 216.051 140.681C216.12 140.987 216.08 141.279 215.932 141.559C215.782 141.832 215.549 142.073 215.234 142.281C214.925 142.487 214.559 142.638 214.137 142.734ZM221.394 140.682L220.448 136.497L217.98 137.056L218.18 138.21C218.245 138.558 218.298 138.901 218.341 139.24C218.39 139.578 218.41 139.894 218.402 140.19C218.399 140.478 218.355 140.723 218.272 140.927C218.186 141.124 218.049 141.258 217.86 141.328L217.139 141.358C217.342 141.318 217.491 141.209 217.588 141.03C217.682 140.845 217.735 140.611 217.746 140.328C217.758 140.045 217.741 139.731 217.697 139.386C217.652 139.034 217.598 138.677 217.537 138.315L217.219 136.592L221.003 135.736L222.087 140.525L221.394 140.682ZM217.341 143.25L216.924 141.406L222.825 140.071L223.242 141.914L222.589 142.062L222.308 140.823L217.714 141.863L217.995 143.102L217.341 143.25ZM226.517 139.922C225.984 140.043 225.491 140.038 225.037 139.909C224.583 139.772 224.197 139.535 223.882 139.196C223.564 138.851 223.348 138.425 223.233 137.918C223.119 137.41 223.124 136.938 223.251 136.499C223.384 136.059 223.614 135.685 223.941 135.379C224.273 135.065 224.676 134.854 225.151 134.746C225.632 134.637 226.083 134.652 226.504 134.789C226.929 134.918 227.294 135.157 227.599 135.505C227.901 135.846 228.111 136.274 228.227 136.788C228.235 136.82 228.239 136.857 228.242 136.897C228.249 136.93 228.257 136.965 228.266 137.004L223.809 138.013L223.692 137.496L227.778 136.571L227.552 136.838C227.468 136.467 227.312 136.157 227.085 135.908C226.863 135.651 226.597 135.472 226.287 135.371C225.977 135.27 225.643 135.26 225.285 135.341C224.934 135.421 224.637 135.573 224.395 135.799C224.152 136.025 223.985 136.302 223.896 136.63C223.806 136.958 223.803 137.31 223.889 137.687L223.913 137.795C224.001 138.185 224.164 138.51 224.401 138.771C224.642 139.024 224.935 139.2 225.279 139.3C225.628 139.392 226.001 139.393 226.397 139.304C226.709 139.233 226.986 139.112 227.228 138.941C227.476 138.769 227.672 138.547 227.815 138.275L228.307 138.636C228.141 138.96 227.902 139.233 227.59 139.454C227.284 139.674 226.927 139.83 226.517 139.922ZM229.297 139.232L229.211 138.626C229.258 138.622 229.303 138.622 229.345 138.626C229.392 138.623 229.432 138.617 229.464 138.61C229.672 138.563 229.82 138.447 229.909 138.263C230.003 138.078 230.054 137.847 230.06 137.573C230.066 137.298 230.045 136.995 229.998 136.664C229.949 136.326 229.896 135.99 229.841 135.654L229.516 133.81L233.271 132.96L234.43 138.081L233.737 138.237L232.669 133.517L232.891 133.682L230.102 134.313L230.219 134.061L230.476 135.561C230.557 136.008 230.617 136.438 230.656 136.853C230.702 137.267 230.707 137.638 230.672 137.967C230.644 138.295 230.562 138.566 230.426 138.782C230.288 138.99 230.083 139.126 229.81 139.188C229.732 139.205 229.649 139.217 229.562 139.223C229.481 139.228 229.393 139.231 229.297 139.232ZM236.398 137.635L235.24 132.515L235.932 132.358L236.852 136.425L239.356 131.583L239.97 131.444L241.129 136.565L240.436 136.722L239.514 132.645L237.023 137.494L236.398 137.635ZM244.089 135.895L243.025 131.194L243.242 131.34L241.126 131.818L240.989 131.214L245.563 130.179L245.7 130.783L243.584 131.262L243.717 131.037L244.781 135.738L244.089 135.895ZM249.177 131.258C249.822 131.119 250.343 131.151 250.737 131.356C251.139 131.559 251.399 131.924 251.518 132.45C251.642 132.997 251.555 133.457 251.257 133.832C250.965 134.206 250.478 134.467 249.793 134.615L247.723 135.073L246.565 129.952L247.257 129.795L247.661 131.58L249.177 131.258ZM249.635 134.097C250.111 133.996 250.448 133.821 250.644 133.571C250.845 133.314 250.903 132.993 250.816 132.609C250.729 132.226 250.546 131.973 250.265 131.852C249.984 131.725 249.601 131.712 249.119 131.814L247.778 132.097L248.294 134.38L249.635 134.097ZM99.0788 181.062C98.5716 181.177 98.0914 181.169 97.6383 181.039C97.1901 180.902 96.8082 180.663 96.4923 180.325C96.175 179.98 95.9589 179.553 95.8442 179.046C95.7279 178.533 95.7395 178.055 95.8788 177.613C96.0181 177.172 96.261 176.795 96.6076 176.485C96.9607 176.172 97.3909 175.959 97.8981 175.844C98.3337 175.745 98.7462 175.741 99.1356 175.831C99.525 175.92 99.8587 176.111 100.137 176.404L99.6993 176.872C99.4649 176.651 99.2037 176.509 98.9156 176.444C98.6276 176.38 98.3308 176.382 98.0251 176.451C97.661 176.533 97.3518 176.692 97.0974 176.927C96.8416 177.156 96.663 177.439 96.5616 177.777C96.4603 178.114 96.4552 178.484 96.5464 178.887C96.6376 179.291 96.8016 179.623 97.0383 179.883C97.2751 180.144 97.5589 180.326 97.8897 180.429C98.2191 180.525 98.5659 180.532 98.93 180.45C99.2356 180.381 99.5045 180.255 99.7366 180.073C99.9688 179.89 100.144 179.652 100.262 179.359L100.858 179.593C100.732 179.97 100.513 180.286 100.202 180.541C99.8887 180.79 99.5145 180.964 99.0788 181.062ZM104.97 179.678L103.812 174.557L106.075 174.045C106.653 173.914 107.133 173.922 107.515 174.068C107.903 174.212 108.146 174.499 108.243 174.928C108.337 175.345 108.251 175.702 107.984 176.002C107.715 176.295 107.321 176.501 106.8 176.618L106.891 176.383C107.502 176.244 107.976 176.257 108.314 176.419C108.651 176.582 108.869 176.878 108.966 177.307C109.066 177.75 108.981 178.131 108.712 178.452C108.448 178.764 107.978 178.997 107.302 179.15L104.97 179.678ZM105.52 178.979L107.149 178.611C107.584 178.512 107.897 178.37 108.087 178.183C108.283 177.988 108.345 177.735 108.274 177.423C108.204 177.111 108.051 176.906 107.817 176.809C107.584 176.711 107.249 176.712 106.813 176.81L105.116 177.194L105.52 178.979ZM104.999 176.677L106.54 176.329C106.937 176.239 107.222 176.096 107.396 175.899C107.577 175.701 107.635 175.459 107.57 175.173C107.506 174.887 107.35 174.696 107.103 174.602C106.862 174.506 106.544 174.503 106.147 174.593L104.606 174.941L104.999 176.677ZM114.084 177.616L113.828 176.484L113.757 176.305L113.329 174.413C113.23 173.978 113.031 173.671 112.731 173.493C112.437 173.313 112.05 173.277 111.569 173.386C111.237 173.461 110.934 173.588 110.66 173.766C110.386 173.944 110.166 174.148 109.999 174.377L109.57 173.931C109.78 173.651 110.054 173.411 110.391 173.212C110.727 173.006 111.097 172.857 111.5 172.766C112.163 172.616 112.711 172.666 113.144 172.917C113.582 173.16 113.876 173.616 114.028 174.286L114.747 177.465L114.084 177.616ZM112.33 178.064C111.946 178.151 111.597 178.165 111.283 178.106C110.974 178.039 110.72 177.912 110.52 177.725C110.319 177.531 110.186 177.288 110.119 176.995C110.059 176.729 110.066 176.474 110.141 176.232C110.221 175.981 110.39 175.758 110.646 175.564C110.908 175.361 111.283 175.204 111.771 175.094L113.536 174.694L113.653 175.211L111.907 175.606C111.413 175.718 111.088 175.884 110.933 176.104C110.784 176.322 110.739 176.561 110.798 176.821C110.864 177.114 111.031 177.322 111.298 177.446C111.565 177.57 111.904 177.586 112.313 177.493C112.704 177.405 113.019 177.241 113.258 177.003C113.503 176.756 113.653 176.449 113.706 176.081L113.97 176.524C113.917 176.891 113.75 177.213 113.471 177.488C113.198 177.761 112.817 177.953 112.33 178.064ZM116.591 177.048L115.432 171.928L116.134 171.769L119.345 175.174L119.052 175.24L120.523 170.776L121.167 170.63L122.326 175.751L121.692 175.894L120.712 171.564L120.852 171.593L119.473 175.74L119.161 175.811L116.103 172.627L116.243 172.565L117.225 176.905L116.591 177.048ZM124.296 175.305L123.138 170.184L123.83 170.027L124.751 174.095L127.254 169.253L127.868 169.114L129.027 174.234L128.334 174.391L127.412 170.314L124.921 175.163L124.296 175.305ZM134.539 172.987L133.476 168.286L133.693 168.431L131.577 168.91L131.44 168.306L136.014 167.271L136.151 167.875L134.034 168.354L134.168 168.129L135.232 172.83L134.539 172.987ZM141.354 171.445L141.098 170.314L141.026 170.135L140.598 168.243C140.5 167.807 140.3 167.5 140 167.322C139.707 167.142 139.319 167.107 138.838 167.216C138.507 167.291 138.204 167.418 137.93 167.596C137.656 167.774 137.435 167.978 137.268 168.207L136.839 167.761C137.049 167.481 137.323 167.241 137.661 167.041C137.997 166.836 138.367 166.687 138.77 166.596C139.433 166.446 139.981 166.496 140.414 166.747C140.851 166.989 141.146 167.446 141.297 168.115L142.017 171.295L141.354 171.445ZM139.599 171.893C139.216 171.98 138.867 171.994 138.553 171.935C138.244 171.868 137.989 171.741 137.79 171.554C137.589 171.361 137.455 171.117 137.389 170.825C137.329 170.558 137.336 170.304 137.411 170.061C137.491 169.811 137.659 169.588 137.916 169.393C138.178 169.19 138.552 169.034 139.04 168.923L140.805 168.524L140.922 169.041L139.177 169.436C138.682 169.548 138.358 169.714 138.202 169.933C138.053 170.151 138.008 170.391 138.067 170.651C138.134 170.943 138.3 171.152 138.568 171.276C138.835 171.4 139.173 171.415 139.583 171.323C139.973 171.235 140.288 171.071 140.528 170.832C140.773 170.585 140.922 170.278 140.976 169.911L141.24 170.353C141.186 170.721 141.02 171.042 140.74 171.317C140.467 171.591 140.087 171.783 139.599 171.893ZM147.615 170.028L144.935 167.969L145.433 167.497L148.435 169.843L147.615 170.028ZM143.86 170.878L142.702 165.757L143.394 165.601L144.553 170.721L143.86 170.878ZM143.822 168.487L143.687 167.892L145.336 167.519L145.47 168.114L143.822 168.487ZM145.58 167.874L144.914 167.922L146.379 164.925L147.13 164.755L145.58 167.874ZM151.464 169.208C150.97 169.32 150.5 169.311 150.053 169.179C149.612 169.04 149.233 168.801 148.917 168.462C148.6 168.117 148.384 167.691 148.269 167.184C148.153 166.67 148.164 166.192 148.303 165.751C148.443 165.309 148.682 164.934 149.023 164.624C149.363 164.315 149.783 164.104 150.284 163.99C150.791 163.876 151.265 163.885 151.705 164.017C152.151 164.149 152.529 164.384 152.839 164.725C153.155 165.063 153.371 165.489 153.487 166.003C153.602 166.51 153.59 166.988 153.452 167.436C153.319 167.876 153.081 168.255 152.735 168.572C152.389 168.883 151.965 169.095 151.464 169.208ZM151.325 168.594C151.696 168.51 152.006 168.355 152.255 168.127C152.503 167.893 152.675 167.609 152.769 167.273C152.869 166.929 152.874 166.559 152.785 166.162C152.693 165.759 152.529 165.427 152.293 165.166C152.062 164.904 151.786 164.724 151.463 164.626C151.139 164.521 150.794 164.51 150.43 164.593C150.066 164.675 149.76 164.833 149.512 165.067C149.263 165.294 149.088 165.577 148.986 165.914C148.885 166.252 148.88 166.622 148.971 167.025C149.061 167.422 149.225 167.754 149.463 168.021C149.7 168.282 149.98 168.464 150.305 168.569C150.628 168.666 150.968 168.675 151.325 168.594ZM155.547 168.233L154.389 163.113L155.081 162.956L156.001 167.023L158.505 162.181L159.119 162.042L160.278 167.163L159.585 167.32L158.663 163.243L156.172 168.092L155.547 168.233ZM156.542 161.846C156.113 161.943 155.741 161.915 155.426 161.761C155.116 161.598 154.908 161.314 154.802 160.907L155.3 160.795C155.365 161.053 155.502 161.237 155.712 161.347C155.921 161.457 156.166 161.48 156.445 161.417C156.725 161.354 156.935 161.228 157.077 161.038C157.225 160.848 157.273 160.621 157.221 160.36L157.718 160.247C157.805 160.658 157.739 161.005 157.523 161.286C157.305 161.561 156.978 161.748 156.542 161.846ZM164.815 166.136L163.656 161.016L165.919 160.504C166.498 160.373 166.978 160.38 167.36 160.526C167.748 160.671 167.99 160.958 168.088 161.387C168.182 161.803 168.095 162.161 167.828 162.461C167.559 162.754 167.165 162.959 166.645 163.077L166.735 162.841C167.346 162.703 167.821 162.715 168.158 162.878C168.496 163.041 168.713 163.337 168.81 163.766C168.91 164.208 168.826 164.59 168.557 164.91C168.292 165.223 167.822 165.456 167.146 165.609L164.815 166.136ZM165.364 165.438L166.993 165.069C167.429 164.971 167.742 164.828 167.932 164.642C168.127 164.447 168.189 164.194 168.119 163.882C168.048 163.569 167.896 163.365 167.662 163.267C167.428 163.17 167.093 163.17 166.658 163.269L164.961 163.653L165.364 165.438ZM164.844 163.136L166.385 162.787C166.781 162.698 167.067 162.554 167.241 162.358C167.422 162.16 167.48 161.918 167.415 161.631C167.35 161.345 167.194 161.155 166.947 161.061C166.707 160.965 166.388 160.961 165.992 161.051L164.451 161.4L164.844 163.136ZM173.929 164.074L173.673 162.943L173.601 162.764L173.173 160.872C173.075 160.436 172.875 160.129 172.575 159.951C172.282 159.771 171.894 159.736 171.413 159.845C171.082 159.92 170.779 160.047 170.505 160.225C170.231 160.403 170.01 160.607 169.843 160.836L169.414 160.39C169.624 160.11 169.898 159.87 170.236 159.671C170.572 159.465 170.941 159.316 171.345 159.225C172.008 159.075 172.556 159.125 172.988 159.376C173.426 159.618 173.721 160.075 173.872 160.744L174.592 163.924L173.929 164.074ZM172.174 164.522C171.791 164.609 171.442 164.623 171.128 164.564C170.819 164.498 170.564 164.371 170.365 164.183C170.164 163.99 170.03 163.746 169.964 163.454C169.904 163.187 169.911 162.933 169.986 162.69C170.066 162.44 170.234 162.217 170.491 162.022C170.753 161.819 171.127 161.663 171.615 161.553L173.38 161.153L173.497 161.67L171.751 162.065C171.257 162.177 170.933 162.343 170.777 162.562C170.628 162.781 170.583 163.02 170.642 163.28C170.708 163.572 170.875 163.781 171.143 163.905C171.41 164.029 171.748 164.045 172.158 163.952C172.548 163.864 172.863 163.7 173.103 163.461C173.348 163.214 173.497 162.907 173.551 162.54L173.815 162.982C173.761 163.35 173.595 163.671 173.315 163.946C173.042 164.22 172.662 164.412 172.174 164.522ZM182.512 162.132L180.182 159.993L180.68 159.522L183.341 161.944L182.512 162.132ZM179.089 160.507L178.954 159.912L180.573 159.546L180.708 160.141L179.089 160.507ZM180.837 159.896L180.152 159.949L181.285 157.027L182.036 156.857L180.837 159.896ZM176.445 163.505L175.616 163.692L176.974 160.36L177.617 160.574L176.445 163.505ZM179.82 162.741L179.127 162.898L177.969 157.777L178.661 157.621L179.82 162.741ZM178.825 160.567L177.216 160.931L177.081 160.336L178.691 159.972L178.825 160.567ZM177.004 160.764L174.604 158.539L175.355 158.369L177.626 160.521L177.004 160.764ZM184.493 161.684L183.335 156.563L184.027 156.406L184.539 158.669L187.768 157.939L187.255 155.676L187.948 155.519L189.107 160.64L188.414 160.796L187.902 158.534L184.674 159.264L185.186 161.527L184.493 161.684ZM196.069 159.064L194.91 153.944L195.603 153.787L196.761 158.908L196.069 159.064ZM192.48 156.39C193.125 156.251 193.649 156.283 194.05 156.486C194.451 156.689 194.712 157.054 194.831 157.581C194.954 158.127 194.867 158.588 194.569 158.963C194.271 159.338 193.784 159.598 193.106 159.745L191.075 160.194L189.916 155.074L190.609 154.917L191.013 156.702L192.48 156.39ZM192.938 159.229C193.421 159.127 193.76 158.951 193.957 158.701C194.158 158.444 194.215 158.123 194.129 157.74C194.042 157.356 193.858 157.104 193.578 156.983C193.296 156.855 192.911 156.843 192.421 156.947L191.13 157.219L191.646 159.501L192.938 159.229ZM198.733 158.461L197.574 153.341L198.267 153.184L199.187 157.251L201.69 152.41L202.305 152.271L203.463 157.391L202.771 157.548L201.848 153.471L199.357 158.32L198.733 158.461ZM199.728 152.074C199.299 152.171 198.927 152.143 198.611 151.989C198.301 151.826 198.093 151.542 197.988 151.135L198.485 151.023C198.55 151.281 198.688 151.466 198.897 151.575C199.107 151.685 199.351 151.708 199.631 151.645C199.91 151.582 200.121 151.456 200.263 151.266C200.411 151.076 200.459 150.849 200.406 150.588L200.904 150.475C200.99 150.886 200.925 151.233 200.708 151.514C200.49 151.789 200.163 151.976 199.728 152.074ZM211.437 155.238L210.49 151.054L208.022 151.612L208.222 152.767C208.287 153.114 208.341 153.458 208.383 153.797C208.432 154.134 208.453 154.451 208.444 154.747C208.441 155.034 208.398 155.28 208.314 155.484C208.229 155.681 208.091 155.814 207.902 155.884L207.181 155.914C207.384 155.875 207.534 155.766 207.63 155.587C207.725 155.402 207.778 155.167 207.789 154.885C207.8 154.602 207.784 154.288 207.74 153.942C207.694 153.59 207.641 153.233 207.579 152.871L207.261 151.149L211.046 150.293L212.129 155.082L211.437 155.238ZM207.384 157.806L206.966 155.963L212.867 154.627L213.284 156.471L212.631 156.619L212.351 155.38L207.757 156.42L208.037 157.658L207.384 157.806ZM213.415 155.129L213.329 154.523C213.376 154.519 213.421 154.519 213.463 154.524C213.51 154.52 213.549 154.514 213.582 154.507C213.79 154.46 213.938 154.344 214.026 154.16C214.121 153.975 214.172 153.745 214.178 153.47C214.184 153.195 214.163 152.892 214.116 152.561C214.067 152.224 214.014 151.887 213.959 151.551L213.634 149.707L217.389 148.857L218.548 153.978L217.855 154.135L216.787 149.414L217.009 149.579L214.219 150.21L214.337 149.958L214.594 151.458C214.675 151.905 214.734 152.336 214.774 152.75C214.819 153.164 214.825 153.535 214.79 153.864C214.761 154.192 214.679 154.464 214.544 154.679C214.406 154.888 214.201 155.023 213.928 155.085C213.85 155.102 213.767 155.114 213.68 155.12C213.599 155.125 213.511 155.128 213.415 155.129ZM223.823 152.784L223.405 150.941L223.565 151.058L221.829 151.451C221.173 151.6 220.626 151.573 220.191 151.371C219.756 151.169 219.476 150.794 219.353 150.248C219.22 149.663 219.32 149.182 219.652 148.807C219.982 148.424 220.479 148.158 221.142 148.008L223.298 147.52L224.457 152.641L223.823 152.784ZM220.077 153.632L221.036 151.344L221.758 151.18L220.828 153.462L220.077 153.632ZM223.359 150.736L222.754 148.064L222.928 148.24L221.299 148.608C220.824 148.716 220.474 148.891 220.249 149.133C220.03 149.374 219.967 149.699 220.059 150.109C220.231 150.87 220.802 151.14 221.771 150.921L223.448 150.542L223.359 150.736ZM228.984 151.616L227.825 146.496L228.518 146.339L229.03 148.602L232.258 147.871L231.746 145.609L232.438 145.452L233.597 150.572L232.905 150.729L232.393 148.466L229.164 149.197L229.676 151.46L228.984 151.616ZM238.745 149.408L238.489 148.276L238.418 148.098L237.99 146.205C237.891 145.77 237.692 145.463 237.392 145.285C237.098 145.105 236.711 145.07 236.23 145.178C235.898 145.254 235.595 145.38 235.321 145.558C235.047 145.737 234.826 145.94 234.66 146.169L234.231 145.723C234.441 145.443 234.714 145.203 235.052 145.004C235.388 144.798 235.758 144.65 236.161 144.558C236.824 144.408 237.372 144.459 237.805 144.709C238.243 144.952 238.537 145.408 238.689 146.078L239.408 149.258L238.745 149.408ZM236.991 149.856C236.607 149.943 236.258 149.957 235.944 149.898C235.635 149.831 235.381 149.704 235.181 149.517C234.98 149.323 234.847 149.08 234.78 148.787C234.72 148.521 234.727 148.266 234.802 148.024C234.882 147.773 235.051 147.55 235.307 147.356C235.569 147.153 235.944 146.996 236.431 146.886L238.197 146.487L238.314 147.004L236.568 147.399C236.074 147.51 235.749 147.676 235.594 147.896C235.445 148.114 235.4 148.353 235.459 148.613C235.525 148.906 235.692 149.114 235.959 149.238C236.226 149.362 236.565 149.378 236.974 149.285C237.365 149.197 237.68 149.034 237.919 148.795C238.164 148.548 238.314 148.241 238.367 147.873L238.631 148.316C238.578 148.683 238.411 149.005 238.132 149.28C237.859 149.553 237.478 149.746 236.991 149.856ZM243.409 148.404C242.901 148.518 242.421 148.511 241.968 148.381C241.52 148.243 241.138 148.005 240.822 147.666C240.505 147.321 240.289 146.895 240.174 146.388C240.058 145.874 240.069 145.396 240.208 144.955C240.348 144.513 240.591 144.137 240.937 143.826C241.29 143.514 241.721 143.3 242.228 143.186C242.663 143.087 243.076 143.082 243.465 143.172C243.855 143.262 244.188 143.453 244.467 143.745L244.029 144.213C243.795 143.993 243.533 143.85 243.245 143.786C242.957 143.721 242.66 143.723 242.355 143.792C241.991 143.875 241.681 144.034 241.427 144.269C241.171 144.498 240.993 144.781 240.891 145.118C240.79 145.456 240.785 145.826 240.876 146.229C240.967 146.632 241.131 146.964 241.368 147.225C241.605 147.486 241.889 147.668 242.219 147.77C242.549 147.867 242.896 147.874 243.26 147.791C243.565 147.722 243.834 147.596 244.066 147.414C244.298 147.232 244.474 146.994 244.592 146.7L245.188 146.935C245.062 147.312 244.843 147.628 244.531 147.883C244.218 148.132 243.844 148.305 243.409 148.404ZM165.689 177.893L164.743 173.709L162.275 174.267L162.475 175.422C162.54 175.769 162.593 176.113 162.636 176.452C162.685 176.789 162.705 177.106 162.697 177.401C162.694 177.689 162.65 177.935 162.567 178.138C162.481 178.335 162.344 178.469 162.155 178.539L161.434 178.569C161.637 178.53 161.786 178.421 161.883 178.242C161.977 178.056 162.03 177.822 162.041 177.54C162.053 177.257 162.036 176.943 161.992 176.597C161.947 176.245 161.893 175.888 161.832 175.526L161.514 173.804L165.298 172.948L166.382 177.736L165.689 177.893ZM161.636 180.461L161.219 178.618L167.12 177.282L167.537 179.126L166.884 179.274L166.603 178.035L162.009 179.074L162.29 180.313L161.636 180.461ZM170.812 177.134C170.279 177.255 169.786 177.25 169.332 177.12C168.878 176.984 168.492 176.746 168.177 176.408C167.859 176.063 167.643 175.636 167.528 175.129C167.414 174.622 167.419 174.149 167.546 173.71C167.679 173.27 167.909 172.897 168.236 172.59C168.568 172.276 168.971 172.065 169.446 171.958C169.927 171.849 170.378 171.863 170.799 172C171.224 172.13 171.589 172.368 171.894 172.716C172.196 173.058 172.406 173.486 172.522 173.999C172.53 174.032 172.534 174.068 172.537 174.109C172.544 174.141 172.552 174.177 172.561 174.216L168.104 175.225L167.987 174.708L172.073 173.783L171.847 174.05C171.763 173.679 171.607 173.369 171.38 173.12C171.158 172.862 170.892 172.683 170.582 172.583C170.272 172.482 169.938 172.472 169.58 172.553C169.229 172.632 168.932 172.785 168.69 173.011C168.447 173.237 168.28 173.513 168.191 173.841C168.101 174.169 168.098 174.522 168.184 174.899L168.208 175.006C168.296 175.396 168.459 175.722 168.696 175.983C168.937 176.236 169.23 176.412 169.574 176.512C169.923 176.604 170.296 176.605 170.692 176.515C171.004 176.444 171.281 176.324 171.523 176.153C171.771 175.981 171.967 175.758 172.11 175.487L172.602 175.847C172.436 176.172 172.197 176.445 171.885 176.666C171.579 176.885 171.222 177.041 170.812 177.134ZM174.636 176.217L173.477 171.097L174.169 170.94L174.681 173.203L177.91 172.473L177.398 170.21L178.09 170.053L179.249 175.174L178.556 175.33L178.044 173.067L174.816 173.798L175.328 176.061L174.636 176.217ZM182.671 170.913C183.316 170.774 183.836 170.807 184.231 171.011C184.633 171.214 184.893 171.579 185.012 172.106C185.136 172.652 185.048 173.113 184.751 173.488C184.459 173.861 183.971 174.122 183.287 174.27L181.217 174.728L180.059 169.608L180.751 169.451L181.155 171.236L182.671 170.913ZM183.129 173.752C183.605 173.651 183.941 173.476 184.138 173.227C184.339 172.969 184.397 172.649 184.31 172.265C184.223 171.881 184.039 171.629 183.759 171.508C183.477 171.38 183.095 171.368 182.613 171.47L181.272 171.753L181.788 174.035L183.129 173.752Z" fill="black"/>
<path d="M208.837 248.819L207.832 249.046L205.784 239.998C205.481 238.666 204.662 237.508 203.506 236.779C202.351 236.05 200.953 235.809 199.62 236.109L191.577 237.929L189.07 226.848C189.23 226.671 189.376 226.483 189.509 226.286C190.237 225.129 190.477 223.731 190.175 222.398C189.874 221.065 189.056 219.907 187.901 219.176L187.894 219.173L184.414 216.976C184.181 216.838 183.904 216.795 183.64 216.855C183.375 216.915 183.144 217.073 182.993 217.298L180.791 220.787C180.377 221.403 180.104 222.104 179.994 222.838C179.883 223.572 179.937 224.322 180.153 225.033C180.368 225.744 180.738 226.398 181.237 226.948C181.736 227.498 182.351 227.93 183.038 228.213L185.545 239.294L177.503 241.114C176.171 241.417 175.013 242.236 174.284 243.392C173.555 244.547 173.314 245.945 173.614 247.278L175.661 256.326L174.656 256.553C173.323 256.856 172.165 257.675 171.436 258.831C170.707 259.986 170.466 261.384 170.766 262.717L173.951 276.792C174.011 277.059 174.175 277.29 174.406 277.436C174.638 277.582 174.917 277.63 175.184 277.57L217.408 268.015C217.674 267.955 217.906 267.791 218.052 267.56C218.198 267.329 218.246 267.049 218.186 266.783L215.001 252.708C214.698 251.375 213.879 250.217 212.723 249.488C211.568 248.759 210.17 248.518 208.837 248.819ZM187.101 236.828L189.112 236.373L189.453 237.881L187.442 238.336L187.101 236.828ZM188.657 234.363L186.646 234.817L186.191 232.807L188.202 232.352L188.657 234.363ZM182.537 221.886L184.185 219.271C185.548 220.129 186.337 220.616 186.835 220.865L186.801 220.921C187.318 221.248 187.727 221.72 187.975 222.279C188.224 222.838 188.301 223.458 188.198 224.06C188.094 224.663 187.814 225.221 187.393 225.665C186.972 226.108 186.429 226.417 185.833 226.552C185.236 226.687 184.613 226.642 184.042 226.423C183.471 226.204 182.978 225.82 182.625 225.321C182.272 224.822 182.075 224.229 182.059 223.618C182.043 223.006 182.21 222.404 182.537 221.886ZM186.288 228.562C186.625 228.484 186.954 228.372 187.269 228.228L187.747 230.341L185.736 230.796L185.258 228.683C185.604 228.676 185.95 228.637 186.288 228.562ZM175.624 246.823C175.444 246.023 175.589 245.184 176.027 244.491C176.464 243.798 177.158 243.306 177.958 243.124L200.075 238.12C200.875 237.94 201.713 238.084 202.407 238.522C203.1 238.959 203.592 239.654 203.774 240.453L204.001 241.459C204.122 241.992 204.026 242.551 203.734 243.014C203.442 243.476 202.979 243.804 202.445 243.924C201.912 244.045 201.353 243.949 200.89 243.657C200.428 243.365 200.1 242.902 199.98 242.368C199.919 242.102 199.756 241.87 199.524 241.724C199.293 241.578 199.014 241.53 198.747 241.591C198.48 241.651 198.248 241.815 198.103 242.046C197.957 242.277 197.909 242.557 197.969 242.823C198.09 243.357 197.994 243.916 197.702 244.378C197.41 244.841 196.947 245.168 196.413 245.289C195.88 245.41 195.321 245.314 194.858 245.022C194.396 244.73 194.068 244.267 193.948 243.733C193.887 243.467 193.724 243.235 193.492 243.089C193.261 242.943 192.982 242.895 192.715 242.956C192.448 243.016 192.217 243.18 192.071 243.411C191.925 243.642 191.877 243.922 191.937 244.188C192.058 244.722 191.962 245.281 191.67 245.743C191.378 246.206 190.915 246.533 190.381 246.654C189.848 246.775 189.289 246.679 188.826 246.387C188.364 246.095 188.036 245.632 187.916 245.098C187.855 244.832 187.692 244.6 187.46 244.454C187.229 244.308 186.95 244.26 186.683 244.32C186.416 244.381 186.185 244.545 186.039 244.776C185.893 245.007 185.845 245.287 185.905 245.553C186.026 246.087 185.93 246.646 185.638 247.108C185.346 247.571 184.883 247.898 184.349 248.019C183.816 248.14 183.257 248.043 182.794 247.752C182.332 247.46 182.004 246.996 181.884 246.463C181.823 246.197 181.66 245.965 181.428 245.819C181.197 245.673 180.918 245.625 180.651 245.685C180.384 245.746 180.153 245.909 180.007 246.141C179.861 246.372 179.813 246.652 179.873 246.918C179.994 247.451 179.898 248.011 179.606 248.473C179.314 248.936 178.851 249.263 178.317 249.384C177.784 249.504 177.225 249.408 176.762 249.117C176.3 248.825 175.972 248.361 175.852 247.828L175.624 246.823ZM176.635 251.29C177.544 251.589 178.529 251.555 179.416 251.194C180.302 250.834 181.031 250.171 181.474 249.323C181.945 249.674 182.487 249.92 183.062 250.042C183.637 250.164 184.231 250.16 184.804 250.03C185.378 249.9 185.916 249.648 186.382 249.29C186.849 248.932 187.232 248.478 187.506 247.958C187.977 248.309 188.519 248.555 189.094 248.677C189.669 248.799 190.263 248.795 190.836 248.665C191.41 248.536 191.948 248.283 192.414 247.925C192.881 247.568 193.264 247.113 193.538 246.593C194.009 246.944 194.551 247.19 195.126 247.312C195.701 247.434 196.295 247.43 196.868 247.3C197.442 247.171 197.98 246.918 198.446 246.56C198.913 246.203 199.296 245.748 199.57 245.228C200.335 245.803 201.279 246.087 202.234 246.031C203.188 245.975 204.092 245.581 204.784 244.921L205.821 249.501L177.672 255.871L176.635 251.29ZM172.777 262.262C172.597 261.462 172.742 260.624 173.179 259.931C173.617 259.237 174.311 258.746 175.111 258.564L209.292 250.829C210.092 250.65 210.93 250.794 211.623 251.232C212.317 251.669 212.808 252.364 212.99 253.163L213.218 254.168C213.338 254.702 213.242 255.261 212.951 255.723C212.659 256.186 212.195 256.513 211.662 256.634C211.129 256.755 210.569 256.658 210.107 256.367C209.645 256.075 209.317 255.611 209.196 255.078C209.136 254.812 208.972 254.58 208.741 254.434C208.51 254.288 208.23 254.24 207.964 254.3C207.697 254.361 207.465 254.524 207.319 254.756C207.174 254.987 207.125 255.267 207.186 255.533C207.306 256.066 207.21 256.626 206.919 257.088C206.627 257.551 206.163 257.878 205.63 257.999C205.097 258.119 204.537 258.023 204.075 257.732C203.613 257.44 203.285 256.976 203.164 256.443C203.104 256.176 202.94 255.945 202.709 255.799C202.478 255.653 202.198 255.605 201.932 255.665C201.665 255.726 201.433 255.889 201.287 256.121C201.142 256.352 201.093 256.631 201.154 256.898C201.274 257.431 201.178 257.991 200.887 258.453C200.595 258.915 200.131 259.243 199.598 259.364C199.065 259.484 198.505 259.388 198.043 259.097C197.581 258.805 197.253 258.341 197.132 257.808C197.072 257.541 196.908 257.31 196.677 257.164C196.446 257.018 196.166 256.97 195.9 257.03C195.633 257.091 195.401 257.254 195.255 257.485C195.11 257.717 195.061 257.996 195.122 258.263C195.242 258.796 195.146 259.356 194.855 259.818C194.563 260.28 194.099 260.608 193.566 260.729C193.033 260.849 192.473 260.753 192.011 260.461C191.549 260.17 191.221 259.706 191.1 259.173C191.04 258.906 190.876 258.675 190.645 258.529C190.414 258.383 190.134 258.335 189.868 258.395C189.601 258.455 189.369 258.619 189.223 258.85C189.078 259.082 189.029 259.361 189.09 259.628C189.21 260.161 189.114 260.72 188.823 261.183C188.531 261.645 188.067 261.973 187.534 262.094C187.001 262.214 186.442 262.118 185.979 261.826C185.517 261.535 185.189 261.071 185.068 260.538C185.008 260.271 184.844 260.039 184.613 259.894C184.382 259.748 184.102 259.7 183.836 259.76C183.569 259.82 183.337 259.984 183.191 260.215C183.046 260.446 182.998 260.726 183.058 260.993C183.178 261.526 183.082 262.085 182.791 262.548C182.499 263.01 182.035 263.338 181.502 263.458C180.969 263.579 180.41 263.483 179.947 263.191C179.485 262.899 179.157 262.436 179.037 261.903C178.976 261.636 178.812 261.404 178.581 261.258C178.35 261.113 178.07 261.065 177.804 261.125C177.537 261.185 177.305 261.349 177.159 261.58C177.014 261.811 176.966 262.091 177.026 262.358C177.147 262.891 177.05 263.45 176.759 263.913C176.467 264.375 176.003 264.703 175.47 264.823C174.937 264.944 174.378 264.848 173.915 264.556C173.453 264.264 173.125 263.801 173.005 263.268L172.777 262.262ZM175.734 275.332L173.788 266.73C174.697 267.028 175.682 266.994 176.568 266.634C177.454 266.273 178.184 265.61 178.627 264.762C179.098 265.114 179.639 265.359 180.214 265.481C180.789 265.603 181.384 265.599 181.957 265.47C182.531 265.34 183.069 265.088 183.535 264.73C184.002 264.372 184.385 263.917 184.659 263.397C185.13 263.749 185.671 263.994 186.246 264.116C186.821 264.238 187.416 264.235 187.989 264.105C188.563 263.975 189.101 263.723 189.567 263.365C190.034 263.007 190.417 262.552 190.691 262.032C191.162 262.384 191.703 262.629 192.278 262.751C192.853 262.874 193.448 262.87 194.021 262.74C194.595 262.61 195.133 262.358 195.599 262C196.066 261.642 196.449 261.188 196.723 260.667C197.194 261.019 197.735 261.264 198.31 261.387C198.885 261.509 199.48 261.505 200.053 261.375C200.627 261.245 201.165 260.993 201.631 260.635C202.098 260.277 202.481 259.823 202.755 259.303C203.226 259.654 203.767 259.899 204.342 260.022C204.917 260.144 205.512 260.14 206.085 260.01C206.658 259.88 207.197 259.628 207.663 259.27C208.13 258.912 208.513 258.458 208.787 257.938C209.551 258.512 210.495 258.797 211.45 258.741C212.405 258.685 213.309 258.291 214.001 257.631L215.948 266.232L175.734 275.332Z" fill="white" fill-opacity="0.6"/>
<defs>
<filter id="filter0_i_29_89" x="20.3027" y="31.2936" width="284.166" height="126.723" filterUnits="userSpaceOnUse" color-interpolation-filters="sRGB">
<feFlood flood-opacity="0" result="BackgroundImageFix"/>
<feBlend mode="normal" in="SourceGraphic" in2="BackgroundImageFix" result="shape"/>
<feColorMatrix in="SourceAlpha" type="matrix" values="0 0 0 0 0 0 0 0 0 0 0 0 0 0 0 0 0 0 127 0" result="hardAlpha"/>
<feOffset dy="4"/>
<feGaussianBlur stdDeviation="2"/>
<feComposite in2="hardAlpha" operator="arithmetic" k2="-1" k3="1"/>
<feColorMatrix type="matrix" values="0 0 0 0 0 0 0 0 0 0 0 0 0 0 0 0 0 0 0.25 0"/>
<feBlend mode="normal" in2="shape" result="effect1_innerShadow_29_89"/>
</filter>
<filter id="filter1_i_29_89" x="20.4073" y="90.1556" width="316.829" height="224.399" filterUnits="userSpaceOnUse" color-interpolation-filters="sRGB">
<feFlood flood-opacity="0" result="BackgroundImageFix"/>
<feBlend mode="normal" in="SourceGraphic" in2="BackgroundImageFix" result="shape"/>
<feColorMatrix in="SourceAlpha" type="matrix" values="0 0 0 0 0 0 0 0 0 0 0 0 0 0 0 0 0 0 127 0" result="hardAlpha"/>
<feOffset dy="4"/>
<feGaussianBlur stdDeviation="2"/>
<feComposite in2="hardAlpha" operator="arithmetic" k2="-1" k3="1"/>
<feColorMatrix type="matrix" values="0 0 0 0 0 0 0 0 0 0 0 0 0 0 0 0 0 0 0.25 0"/>
<feBlend mode="normal" in2="shape" result="effect1_innerShadow_29_89"/>
</filter>
<filter id="filter2_i_29_89" x="218.017" y="90.1556" width="119.219" height="161.541" filterUnits="userSpaceOnUse" color-interpolation-filters="sRGB">
<feFlood flood-opacity="0" result="BackgroundImageFix"/>
<feBlend mode="normal" in="SourceGraphic" in2="BackgroundImageFix" result="shape"/>
<feColorMatrix in="SourceAlpha" type="matrix" values="0 0 0 0 0 0 0 0 0 0 0 0 0 0 0 0 0 0 127 0" result="hardAlpha"/>
<feOffset dy="4"/>
<feGaussianBlur stdDeviation="2"/>
<feComposite in2="hardAlpha" operator="arithmetic" k2="-1" k3="1"/>
<feColorMatrix type="matrix" values="0 0 0 0 0 0 0 0 0 0 0 0 0 0 0 0 0 0 0.25 0"/>
<feBlend mode="normal" in2="shape" result="effect1_innerShadow_29_89"/>
</filter>
<filter id="filter3_i_29_89" x="20.4073" y="154.479" width="131.114" height="160.073" filterUnits="userSpaceOnUse" color-interpolation-filters="sRGB">
<feFlood flood-opacity="0" result="BackgroundImageFix"/>
<feBlend mode="normal" in="SourceGraphic" in2="BackgroundImageFix" result="shape"/>
<feColorMatrix in="SourceAlpha" type="matrix" values="0 0 0 0 0 0 0 0 0 0 0 0 0 0 0 0 0 0 127 0" result="hardAlpha"/>
<feOffset dy="4"/>
<feGaussianBlur stdDeviation="2"/>
<feComposite in2="hardAlpha" operator="arithmetic" k2="-1" k3="1"/>
<feColorMatrix type="matrix" values="0 0 0 0 0 0 0 0 0 0 0 0 0 0 0 0 0 0 0.25 0"/>
<feBlend mode="normal" in2="shape" result="effect1_innerShadow_29_89"/>
</filter>
<filter id="filter4_i_29_89" x="62.2307" y="206.247" width="271.072" height="108.308" filterUnits="userSpaceOnUse" color-interpolation-filters="sRGB">
<feFlood flood-opacity="0" result="BackgroundImageFix"/>
<feBlend mode="normal" in="SourceGraphic" in2="BackgroundImageFix" result="shape"/>
<feColorMatrix in="SourceAlpha" type="matrix" values="0 0 0 0 0 0 0 0 0 0 0 0 0 0 0 0 0 0 127 0" result="hardAlpha"/>
<feOffset dy="4"/>
<feGaussianBlur stdDeviation="2"/>
<feComposite in2="hardAlpha" operator="arithmetic" k2="-1" k3="1"/>
<feColorMatrix type="matrix" values="0 0 0 0 0 0 0 0 0 0 0 0 0 0 0 0 0 0 0.25 0"/>
<feBlend mode="normal" in2="shape" result="effect1_innerShadow_29_89"/>
</filter>
</defs>
</svg>
